<?xml version="1.0" encoding="UTF-8" standalone="no"?>
<!DOCTYPE svg PUBLIC "-//W3C//DTD SVG 1.1//EN"
 "http://www.w3.org/Graphics/SVG/1.1/DTD/svg11.dtd">
<!-- Generated by graphviz version 14.1.3 (0)
 -->
<!-- Title: callgraph Pages: 1 -->
<svg width="917pt" height="298pt"
 viewBox="0.00 0.00 917.00 298.00" xmlns="http://www.w3.org/2000/svg" xmlns:xlink="http://www.w3.org/1999/xlink">
<g id="graph0" class="graph" transform="scale(1 1) rotate(0) translate(4 294)">
<title>callgraph</title>
<polygon fill="white" stroke="none" points="-4,4 -4,-294 912.75,-294 912.75,4 -4,4"/>
<text xml:space="preserve" text-anchor="middle" x="454.38" y="-272.7" font-family="Courier,monospace" font-size="14.00">src/sink/rntuple.hpp</text>
<!-- RNTuples -->
<g id="node1" class="node">
<title>RNTuples</title>
<polygon fill="#f5f5f5" stroke="black" points="98.5,-59.75 0,-59.75 0,0 98.5,0 98.5,-59.75"/>
<text xml:space="preserve" text-anchor="middle" x="49.25" y="-42.45" font-family="Courier,monospace" font-size="14.00">void</text>
<text xml:space="preserve" text-anchor="middle" x="49.25" y="-25.2" font-family="Courier,monospace" font-size="14.00">RNTuples()</text>
<text xml:space="preserve" text-anchor="middle" x="49.25" y="-7.95" font-family="Courier,monospace" font-size="14.00">called: 0</text>
</g>
<!-- ingest -->
<g id="node2" class="node">
<title>ingest</title>
<polygon fill="#f5f5f5" stroke="black" points="94.38,-137.75 4.12,-137.75 4.12,-78 94.38,-78 94.38,-137.75"/>
<text xml:space="preserve" text-anchor="middle" x="49.25" y="-120.45" font-family="Courier,monospace" font-size="14.00">void</text>
<text xml:space="preserve" text-anchor="middle" x="49.25" y="-103.2" font-family="Courier,monospace" font-size="14.00">ingest()</text>
<text xml:space="preserve" text-anchor="middle" x="49.25" y="-85.95" font-family="Courier,monospace" font-size="14.00">called: 0</text>
</g>
<!-- get_or_create -->
<g id="node7" class="node">
<title>get_or_create</title>
<polygon fill="#f5f5f5" stroke="black" points="274.25,-137.75 134.5,-137.75 134.5,-78 274.25,-78 274.25,-137.75"/>
<text xml:space="preserve" text-anchor="middle" x="204.38" y="-120.45" font-family="Courier,monospace" font-size="14.00">MetaWriters&amp;</text>
<text xml:space="preserve" text-anchor="middle" x="204.38" y="-103.2" font-family="Courier,monospace" font-size="14.00">get_or_create()</text>
<text xml:space="preserve" text-anchor="middle" x="204.38" y="-85.95" font-family="Courier,monospace" font-size="14.00">called: 1</text>
</g>
<!-- ingest&#45;&gt;get_or_create -->
<g id="edge1" class="edge">
<title>ingest&#45;&gt;get_or_create</title>
<path fill="none" stroke="black" d="M94.54,-107.88C103.43,-107.88 113.03,-107.88 122.71,-107.88"/>
<polygon fill="black" stroke="black" points="122.57,-111.38 132.57,-107.88 122.57,-104.38 122.57,-111.38"/>
</g>
<!-- bucket_week -->
<g id="node3" class="node">
<title>bucket_week</title>
<polygon fill="#f5f5f5" stroke="black" points="908.75,-186.75 785.5,-186.75 785.5,-127 908.75,-127 908.75,-186.75"/>
<text xml:space="preserve" text-anchor="middle" x="847.12" y="-169.45" font-family="Courier,monospace" font-size="14.00">uint8_t</text>
<text xml:space="preserve" text-anchor="middle" x="847.12" y="-152.2" font-family="Courier,monospace" font-size="14.00">bucket_week()</text>
<text xml:space="preserve" text-anchor="middle" x="847.12" y="-134.95" font-family="Courier,monospace" font-size="14.00">called: 1</text>
</g>
<!-- year_month -->
<g id="node4" class="node">
<title>year_month</title>
<polygon fill="#f5f5f5" stroke="black" points="904.62,-264.75 789.62,-264.75 789.62,-205 904.62,-205 904.62,-264.75"/>
<text xml:space="preserve" text-anchor="middle" x="847.12" y="-247.45" font-family="Courier,monospace" font-size="14.00">std::string</text>
<text xml:space="preserve" text-anchor="middle" x="847.12" y="-230.2" font-family="Courier,monospace" font-size="14.00">year_month()</text>
<text xml:space="preserve" text-anchor="middle" x="847.12" y="-212.95" font-family="Courier,monospace" font-size="14.00">called: 1</text>
</g>
<!-- bucket_key -->
<g id="node5" class="node">
<title>bucket_key</title>
<polygon fill="#f5f5f5" stroke="black" points="650.5,-225.75 535.5,-225.75 535.5,-166 650.5,-166 650.5,-225.75"/>
<text xml:space="preserve" text-anchor="middle" x="593" y="-208.45" font-family="Courier,monospace" font-size="14.00">std::string</text>
<text xml:space="preserve" text-anchor="middle" x="593" y="-191.2" font-family="Courier,monospace" font-size="14.00">bucket_key()</text>
<text xml:space="preserve" text-anchor="middle" x="593" y="-173.95" font-family="Courier,monospace" font-size="14.00">called: 2</text>
</g>
<!-- bucket_key&#45;&gt;bucket_week -->
<g id="edge3" class="edge">
<title>bucket_key&#45;&gt;bucket_week</title>
<path fill="none" stroke="black" d="M650.9,-187.07C687.25,-181.45 734.71,-174.11 773.74,-168.07"/>
<polygon fill="black" stroke="black" points="774.19,-171.54 783.54,-166.56 773.12,-164.63 774.19,-171.54"/>
</g>
<!-- bucket_key&#45;&gt;year_month -->
<g id="edge2" class="edge">
<title>bucket_key&#45;&gt;year_month</title>
<path fill="none" stroke="black" d="M650.9,-204.68C688.65,-210.52 738.39,-218.21 778.22,-224.37"/>
<polygon fill="black" stroke="black" points="777.52,-227.8 787.94,-225.87 778.59,-220.89 777.52,-227.8"/>
</g>
<!-- make_dir -->
<g id="node6" class="node">
<title>make_dir</title>
<polygon fill="#f5f5f5" stroke="black" points="646.38,-147.75 539.62,-147.75 539.62,-88 646.38,-88 646.38,-147.75"/>
<text xml:space="preserve" text-anchor="middle" x="593" y="-130.45" font-family="Courier,monospace" font-size="14.00">std::string</text>
<text xml:space="preserve" text-anchor="middle" x="593" y="-113.2" font-family="Courier,monospace" font-size="14.00">make_dir()</text>
<text xml:space="preserve" text-anchor="middle" x="593" y="-95.95" font-family="Courier,monospace" font-size="14.00">called: 2</text>
</g>
<!-- get_or_create&#45;&gt;bucket_key -->
<g id="edge4" class="edge">
<title>get_or_create&#45;&gt;bucket_key</title>
<path fill="none" stroke="black" d="M241.82,-138.06C260.97,-152.15 285.56,-167.61 310.25,-175.88 380.33,-199.34 465.54,-202.11 523.78,-200.42"/>
<polygon fill="black" stroke="black" points="523.67,-203.92 533.54,-200.08 523.43,-196.93 523.67,-203.92"/>
</g>
<!-- get_or_create&#45;&gt;make_dir -->
<g id="edge6" class="edge">
<title>get_or_create&#45;&gt;make_dir</title>
<path fill="none" stroke="black" d="M274.7,-100.33C286.54,-99.31 298.74,-98.42 310.25,-97.88 350.32,-95.97 360.44,-95.79 400.5,-97.88 443.16,-100.1 490.94,-105.08 528.11,-109.52"/>
<polygon fill="black" stroke="black" points="527.43,-112.96 537.78,-110.69 528.27,-106.02 527.43,-112.96"/>
</g>
<!-- rotate -->
<g id="node8" class="node">
<title>rotate</title>
<polygon fill="#f5f5f5" stroke="black" points="400.5,-166.75 310.25,-166.75 310.25,-107 400.5,-107 400.5,-166.75"/>
<text xml:space="preserve" text-anchor="middle" x="355.38" y="-149.45" font-family="Courier,monospace" font-size="14.00">void</text>
<text xml:space="preserve" text-anchor="middle" x="355.38" y="-132.2" font-family="Courier,monospace" font-size="14.00">rotate()</text>
<text xml:space="preserve" text-anchor="middle" x="355.38" y="-114.95" font-family="Courier,monospace" font-size="14.00">called: 1</text>
</g>
<!-- get_or_create&#45;&gt;rotate -->
<g id="edge5" class="edge">
<title>get_or_create&#45;&gt;rotate</title>
<path fill="none" stroke="black" d="M274.64,-121.36C282.71,-122.93 290.86,-124.51 298.71,-126.04"/>
<polygon fill="black" stroke="black" points="297.98,-129.47 308.47,-127.94 299.32,-122.59 297.98,-129.47"/>
</g>
<!-- make_writer -->
<g id="node10" class="node">
<title>make_writer</title>
<polygon fill="#f5f5f5" stroke="black" points="749.5,-69.75 436.5,-69.75 436.5,-10 749.5,-10 749.5,-69.75"/>
<text xml:space="preserve" text-anchor="middle" x="593" y="-52.45" font-family="Courier,monospace" font-size="14.00">std::unique_ptr&lt;ROOT::RNTupleWriter&gt;</text>
<text xml:space="preserve" text-anchor="middle" x="593" y="-35.2" font-family="Courier,monospace" font-size="14.00">make_writer()</text>
<text xml:space="preserve" text-anchor="middle" x="593" y="-17.95" font-family="Courier,monospace" font-size="14.00">called: 2</text>
</g>
<!-- get_or_create&#45;&gt;make_writer -->
<g id="edge7" class="edge">
<title>get_or_create&#45;&gt;make_writer</title>
<path fill="none" stroke="black" d="M274.5,-95.72C316.47,-88.34 371.99,-78.57 424.86,-69.27"/>
<polygon fill="black" stroke="black" points="425.36,-72.74 434.6,-67.56 424.14,-65.84 425.36,-72.74"/>
</g>
<!-- rotate&#45;&gt;bucket_key -->
<g id="edge8" class="edge">
<title>rotate&#45;&gt;bucket_key</title>
<path fill="none" stroke="black" d="M400.97,-148.04C435.65,-156.73 484.36,-168.92 523.91,-178.83"/>
<polygon fill="black" stroke="black" points="523.05,-182.22 533.6,-181.25 524.75,-175.43 523.05,-182.22"/>
</g>
<!-- rotate&#45;&gt;make_dir -->
<g id="edge9" class="edge">
<title>rotate&#45;&gt;make_dir</title>
<path fill="none" stroke="black" d="M400.97,-133.28C436.87,-130.38 487.8,-126.28 528.04,-123.03"/>
<polygon fill="black" stroke="black" points="528.16,-126.53 537.84,-122.24 527.6,-119.56 528.16,-126.53"/>
</g>
<!-- rotate&#45;&gt;make_writer -->
<g id="edge10" class="edge">
<title>rotate&#45;&gt;make_writer</title>
<path fill="none" stroke="black" d="M392.03,-106.59C405.3,-96.57 420.94,-86.13 436.5,-78.88 439.84,-77.32 443.26,-75.82 446.72,-74.37"/>
<polygon fill="black" stroke="black" points="447.85,-77.69 455.86,-70.75 445.28,-71.18 447.85,-77.69"/>
</g>
<!-- make_fields -->
<g id="node9" class="node">
<title>make_fields</title>
<polygon fill="#f5f5f5" stroke="black" points="908.75,-69.75 785.5,-69.75 785.5,-10 908.75,-10 908.75,-69.75"/>
<text xml:space="preserve" text-anchor="middle" x="847.12" y="-52.45" font-family="Courier,monospace" font-size="14.00">void</text>
<text xml:space="preserve" text-anchor="middle" x="847.12" y="-35.2" font-family="Courier,monospace" font-size="14.00">make_fields()</text>
<text xml:space="preserve" text-anchor="middle" x="847.12" y="-17.95" font-family="Courier,monospace" font-size="14.00">called: 1</text>
</g>
<!-- make_writer&#45;&gt;make_fields -->
<g id="edge11" class="edge">
<title>make_writer&#45;&gt;make_fields</title>
<path fill="none" stroke="black" d="M749.73,-39.88C757.98,-39.88 766.05,-39.88 773.79,-39.88"/>
<polygon fill="black" stroke="black" points="773.75,-43.38 783.75,-39.88 773.75,-36.38 773.75,-43.38"/>
</g>
</g>
</svg>
